<svg xmlns="http://www.w3.org/2000/svg" width="34.141" height="27.64" viewBox="0 0 34.141 27.64">
  <g id="Group_4662" data-name="Group 4662" transform="translate(-1865.5 1489.82)">
    <g id="Group_604" data-name="Group 604" transform="translate(1865.5 -1484.522)">
      <path id="Path_4736" data-name="Path 4736" d="M187.726,15.564a2.644,2.644,0,0,0-2.756,1.651c-.754,1.522-.34,1.552.52,1.56.9.008,4.244.032,5.133,0,.724-.026,1.108-.136,1.13-1.063s.009-1.193,0-1.533c-.014-.572-.387-.615-1.334-.615Z" transform="translate(-172.269 -12.979)" fill="#fff"/>
      <path id="Path_4737" data-name="Path 4737" d="M303.6,16.4a14.586,14.586,0,0,0,.025,1.581c.045.249.023.769.814.791s4.635.023,4.952,0a.7.7,0,0,0,.452-1.108c-.617-1.107-1.642-2.1-5.72-2.1C303.724,15.566,303.609,15.93,303.6,16.4Z" transform="translate(-283.349 -12.981)" fill="#fff"/>
      <g id="Group_605" data-name="Group 605" transform="translate(0 -3.978)">
        <circle id="Ellipse_2" data-name="Ellipse 2" cx="3.256" cy="3.256" r="3.256" transform="translate(1.298 13.196)" fill="#013a6f"/>
        <path id="Path_4735" data-name="Path 4735" d="M34.047,10.031c-.24.133-1.448.178-1.719-.422a3.82,3.82,0,0,0-7.476,1.053c-.031.52-.435.724-1.177.724-.249,0-3.465.031-6.761.062-.138,0-.275,0-.413,0-.275,0-.551,0-.826.009-.133,0-.271,0-.4,0-.409,0-.8,0-1.195.009-.129,0-.258,0-.382,0l-2.768.035c-.729.009-1.213.018-1.328.022a.8.8,0,0,1-.906-.755C8.664,10.453,8,6.873,4.866,6.869c-2.643,0-3.9,2.1-4.682,3.212a0,0,0,0,0,0,0c-.1.156-.231.16-.16-.169,0-.009,0-.018,0-.027A25.722,25.722,0,0,1,.855,6.775C2.174,4.9,9.837,3.848,10.561,3.848L13.093.4c.786-.391,4.975-.533,9.648-.258a6.99,6.99,0,0,1,1.195.178c.235.058.475.124.711.2.124.04.249.084.373.129s.244.1.369.147c.244.1.484.213.724.338.12.062.24.124.36.191.235.129.471.267.7.409s.458.293.68.449.44.311.653.475c.08.058.156.12.231.178l0,0c.346.271.671.542.982.822.1.084.191.169.284.253.307.275.591.555.857.822.142.142.28.284.4.422A19.4,19.4,0,0,1,32.594,6.7a0,0,0,0,0,0,0c.142.187.253.347.333.467C33.82,8.539,34.371,9.849,34.047,10.031Z" transform="translate(0.001 5.524)" fill="#013a6f"/>
        <circle id="Ellipse_5" data-name="Ellipse 5" cx="3.256" cy="3.256" r="3.256" transform="translate(25.456 13.196)" fill="#013a6f"/>
        <line id="Line_25" data-name="Line 25" x1="11.111" y2="25" transform="translate(11.736)" fill="none" stroke="#eff0fd" stroke-linecap="round" stroke-width="2"/>
        <line id="Line_24" data-name="Line 24" x1="11.111" y2="25" transform="translate(12.998)" fill="none" stroke="#c5d6f8" stroke-linecap="round" stroke-width="2"/>
      </g>
    </g>
  </g>
</svg>
