<svg xmlns="http://www.w3.org/2000/svg" width="36.871" height="36" viewBox="0 0 36.871 36">
  <g id="Group_4639" data-name="Group 4639" transform="translate(-101.502 -139.5)">
    <g id="Group_4634" data-name="Group 4634" transform="translate(-183.061)">
      <g id="Group_945" data-name="Group 945" transform="translate(285.063 140)">
        <path id="Rectangle_40" data-name="Rectangle 40" d="M33.456,0a2.536,2.536,0,0,1,2.415,2.642V32.358A2.536,2.536,0,0,1,33.456,35H2.415A2.536,2.536,0,0,1,0,32.358V2.642A2.536,2.536,0,0,1,2.415,0Z" transform="translate(0 0)" fill="none" stroke="#202b36" stroke-width="1" style="isolation: isolate"/>
      </g>
    </g>
    <g id="delete-alt-2-svgrepo-com" transform="translate(108.002 145)">
      <path id="secondary" d="M16,7V4a1,1,0,0,0-1-1H9A1,1,0,0,0,8,4V7m4,4v6" fill="none" stroke="#202b36" stroke-linecap="round" stroke-linejoin="round" stroke-width="1"/>
      <path id="primary" d="M4,7H20M17.07,20.07,18,7H6l.93,13.07a1,1,0,0,0,1,.93h8.14A1,1,0,0,0,17.07,20.07Z" fill="none" stroke="#202b36" stroke-linecap="round" stroke-linejoin="round" stroke-width="1"/>
    </g>
  </g>
</svg>
