<svg xmlns="http://www.w3.org/2000/svg" width="15.783" height="15.735" viewBox="0 0 15.783 15.735">
  <g id="Group_4765" data-name="Group 4765" transform="translate(-53 -321.817)">
    <g id="surveillance-camera-left-svgrepo-com" transform="translate(53 321.817)">
      <path id="primary" d="M16.131,18.407H12.922a.672.672,0,1,1,0-1.345h2.849l3.009-4.513A.672.672,0,0,1,19.9,13.3L16.69,18.108A.672.672,0,0,1,16.131,18.407Z" transform="translate(-12.25 -4.229)" fill="#465464"/>
      <path id="primary-2" data-name="primary" d="M-.078,3.284A.672.672,0,0,1-.75,2.612V-.078A.672.672,0,0,1-.078-.75a.672.672,0,0,1,.672.672V2.612A.672.672,0,0,1-.078,3.284Z" transform="translate(0.798 12.451)" fill="#465464"/>
      <path id="secondary" d="M6.922,8.25h9.625a.672.672,0,0,1,.672.672v2.406A1.476,1.476,0,0,1,15.746,12.8H7.724A1.476,1.476,0,0,1,6.25,11.329V8.922A.672.672,0,0,1,6.922,8.25Zm8.953,1.345H7.595v1.734a.13.13,0,0,0,.13.13h8.021a.13.13,0,0,0,.13-.13Z" transform="translate(-4.646 -3.437)" fill="#465464"/>
      <path id="secondary-2" data-name="secondary" d="M3.724,5.25h1.6A1.476,1.476,0,0,1,6.8,6.724v1.6A1.476,1.476,0,0,1,5.329,9.8H2.922a.672.672,0,0,1-.672-.672v-.8a.672.672,0,0,1,.035-.213l.8-2.406A.672.672,0,0,1,3.724,5.25Zm1.6,3.209a.13.13,0,0,0,.13-.13v-1.6a.13.13,0,0,0-.13-.13H4.209L3.595,8.438v.021Z" transform="translate(8.98 -2.844)" fill="#465464"/>
      <path id="primary-3" data-name="primary" d="M16.152,8.407H5.724A1.476,1.476,0,0,1,4.25,6.933V3.724A1.476,1.476,0,0,1,5.724,2.25H17.756a.672.672,0,0,1,.638.885l-1.6,4.813A.672.672,0,0,1,16.152,8.407ZM5.724,3.595a.13.13,0,0,0-.13.13V6.933a.13.13,0,0,0,.13.13h9.943l1.156-3.468Z" transform="translate(-4.25 -2.25)" fill="#465464"/>
    </g>
  </g>
</svg>
