<svg xmlns="http://www.w3.org/2000/svg" width="36.871" height="36" viewBox="0 0 36.871 36">
  <g id="Group_4639" data-name="Group 4639" transform="translate(-101.502 -139.5)">
    <g id="Group_4634" data-name="Group 4634" transform="translate(-183.061)">
      <g id="Group_945" data-name="Group 945" transform="translate(285.063 140)">
        <path id="Rectangle_40" data-name="Rectangle 40" d="M33.456,0a2.536,2.536,0,0,1,2.415,2.642V32.358A2.536,2.536,0,0,1,33.456,35H2.415A2.536,2.536,0,0,1,0,32.358V2.642A2.536,2.536,0,0,1,2.415,0Z" transform="translate(0 0)" fill="none" stroke="#202b36" stroke-width="1" style="isolation: isolate"/>
      </g>
    </g>
    <g id="Edit_Edit_Pencil_Line_01" data-name="Edit / Edit_Pencil_Line_01" transform="translate(107.053 144.431)">
      <path id="Vector" d="M4,21.724H21.769M4,21.724V17.281L12.885,8.4M4,21.724H8.442l8.885-8.885M12.885,8.4l3.186-3.186,0,0a2.752,2.752,0,0,1,.911-.74,1.111,1.111,0,0,1,.686,0,2.749,2.749,0,0,1,.91.74L20.513,7.14a2.76,2.76,0,0,1,.742.913,1.111,1.111,0,0,1,0,.686,2.754,2.754,0,0,1-.741.912h0l-3.186,3.186M12.885,8.4l4.442,4.442" transform="translate(0 0)" fill="none" stroke="#202b36" stroke-linecap="round" stroke-linejoin="round" stroke-width="1"/>
    </g>
  </g>
</svg>
