<svg xmlns="http://www.w3.org/2000/svg" width="81.791" height="81.791" viewBox="0 0 81.791 81.791">
    <g data-name="Group 4476">
        <path data-name="Path 6179" d="M81.791 40.9a40.9 40.9 0 1 0-40.9 40.9 40.9 40.9 0 0 0 40.9-40.9" style="fill:#c7d8fa"/>
        <path data-name="Path 6180" d="M227.262 180.194c-3-22.019-5.859-35.627-5.859-35.627-.539-4.816-4.808-13.848-14.383-14.027-7.914-.149-9.439 3.638-9.73 4.956-3.906 1.533-5.551 10.149-6.779 17.3-1.393 8.116-3.356 39.834-3.356 39.834s16.818 10.6 36.717 2.114c3.436-1.465 4.814-4.107 3.391-14.553" transform="translate(-166.669 -116.248)" style="fill:#120284"/>
        <path data-name="Path 6181" d="M279.085 418.495a21.52 21.52 0 0 1-7.533 4.218h-.016c-7.867 2.36-14.136-1.868-16.577-3.913.177-.068.354-.135.527-.206a8.742 8.742 0 0 0 1.321-.662c6.218-3.813 5.086-14.287 5.086-14.287h11.04a23.581 23.581 0 0 0 .045 4.434c.37 3.646 1.717 8.507 6.109 10.413" transform="translate(-227.049 -359.466)" style="fill:#c4c4f7"/>
        <path data-name="Path 6182" d="M223.32 542.945c-31.9 9.645-43.208-1.4-43.208-1.4a33.655 33.655 0 0 1 4.027-1.271 40.267 40.267 0 0 1 4.693-.876l23.6-.1a27.656 27.656 0 0 1 3.776.823 36.854 36.854 0 0 1 7.11 2.822" transform="translate(-160.397 -480.27)" style="fill:#c4c4f7"/>
        <path data-name="Path 6183" d="M331.21 408.082a3.647 3.647 0 0 1-2.884 2c-5.144.428-8.037-4.626-7.976-5.093l.267-1.337h10.548a23.569 23.569 0 0 0 .045 4.434" transform="translate(-285.284 -359.466)" style="fill:#120284"/>
        <path data-name="Path 6184" d="M445.856 294.15a2.3 2.3 0 1 0-4.548 0c0 1.441 1.018 3.252 2.274 3.252s2.274-1.811 2.274-3.252" transform="translate(-393.004 -259.63)" style="fill:#c4c4f7"/>
        <path data-name="Path 6185" d="m455.333 309.1-.16-.016c0-.017.195-1.718 1.774-1.76v.161c-1.44.038-1.617 1.6-1.618 1.616" transform="translate(-405.351 -273.683)" style="fill:#120284"/>
        <path data-name="Path 6186" d="M457.505 316.809a.927.927 0 0 0-1.516-.007l-.128-.1a1.086 1.086 0 0 1 1.759-.007z" transform="translate(-405.965 -281.636)" style="fill:#120284"/>
        <path data-name="Path 6187" d="M252.133 294.15a2.3 2.3 0 1 1 4.548 0c0 1.441-1.018 3.252-2.274 3.252s-2.274-1.811-2.274-3.252" transform="translate(-224.535 -259.63)" style="fill:#c4c4f7"/>
        <path data-name="Path 6188" d="m267.485 309.1.16-.016c0-.017-.195-1.718-1.774-1.76v.161c1.44.038 1.617 1.6 1.619 1.616" transform="translate(-236.765 -273.683)" style="fill:#120284"/>
        <path data-name="Path 6189" d="M265.474 316.809a.927.927 0 0 1 1.516-.007l.128-.1a1.086 1.086 0 0 0-1.759-.007z" transform="translate(-236.313 -281.636)" style="fill:#120284"/>
        <path data-name="Path 6190" d="M297.313 215.693a8.043 8.043 0 0 1-12.752 0 .322.322 0 0 0-.03-.036c-3.018-3.814-3.632-9.37-2.815-15.984.588-4.759 5.075-6.6 7.566-7.266a6.427 6.427 0 0 1 3.309 0c2.491.663 6.978 2.507 7.566 7.266.82 6.635.2 12.206-2.845 16.02" transform="translate(-250.587 -171.154)" style="fill:#c4c4f7"/>
        <path data-name="Path 6191" d="M396.192 311.8a.547.547 0 1 0-.547.547.547.547 0 0 0 .547-.547" transform="translate(-351.852 -277.184)" style="fill:#120284"/>
        <path data-name="Path 6192" d="M330.123 311.8a.547.547 0 1 0-.547.547.547.547 0 0 0 .547-.547" transform="translate(-293.015 -277.184)" style="fill:#120284"/>
        <path data-name="Path 6193" d="M387.135 266.081s-1.429.037-3.305.046-2.361-.009-2.193-.491 2.05-.472 3.224-.306a7.955 7.955 0 0 1 2.274.75" transform="translate(-339.836 -236.196)" style="fill:#120284"/>
        <path data-name="Path 6194" d="M300.834 266.081s1.429.037 3.305.046 2.361-.009 2.193-.491-2.05-.472-3.224-.306a7.954 7.954 0 0 0-2.274.75" transform="translate(-267.906 -236.196)" style="fill:#120284"/>
        <path data-name="Path 6195" d="M360.5 327.566a.754.754 0 0 1-.5-.132.292.292 0 0 1-.086-.273c.079-.5.372-2.5.375-2.517l.159.023c0 .02-.3 2.016-.375 2.519a.133.133 0 0 0 .037.131c.149.139.671.086.965.02l.036.157a3.075 3.075 0 0 1-.611.073" transform="translate(-320.515 -289.109)" style="fill:#120284"/>
        <path data-name="Path 6196" d="M368.719 359.743a3.033 3.033 0 0 1-.7-.075.075.075 0 0 1 .038-.145 3.23 3.23 0 0 0 1.846-.157.075.075 0 1 1 .058.139 3.227 3.227 0 0 1-1.238.239" transform="translate(-327.684 -320.025)" style="fill:#120284"/>
        <path data-name="Path 6197" d="m451.4 239.057-.292 10.75.846-5.328s2.62-3.493-.554-5.422" transform="translate(-401.733 -212.89)" style="fill:#120284"/>
        <path data-name="Path 6198" d="m271.7 245.025.143 10.1-.846-5.328s-2.472-2.84.7-4.769" transform="translate(-240.514 -218.205)" style="fill:#120284"/>
        <path data-name="Path 6199" d="m104.1 565.827.384-7.3.349-6.635.191-3.629v-.018q-.48.12-.944.25a18.17 18.17 0 0 0-.555.159c-.142.041-.282.084-.421.127l-.118.038c-.089.026-.177.055-.265.084h-.009c-.147.047-.291.1-.435.144s-.286.1-.427.148l-.379.138-.042.016c-.145.054-.288.108-.43.163s-.275.109-.412.164-.271.11-.405.166-.266.114-.4.172q-.4.173-.776.354c-.123.058-.244.117-.364.176l-.03.016c-.1.051-.209.1-.311.155l-.08.041c-.11.056-.22.114-.329.172l-.359.193c-.236.13-.469.262-.7.4l-.34.2c-.219.133-.433.268-.644.4a.135.135 0 0 1-.017.012c-.107.071-.215.14-.321.213s-.211.142-.315.214-.207.144-.309.218l-.3.219c-.2.148-.4.3-.587.447-.1.075-.191.151-.286.227s-.187.152-.281.229q-.415.344-.805.7t-.73.69l-.026.026q-.244.242-.477.485c-.077.081-.044.044-.12.127a41.43 41.43 0 0 0 12.825 9.894" transform="translate(-81.287 -488.24)" style="fill:#2465e9"/>
        <path data-name="Path 6200" d="m515.63 566.846-.53-8.315-.349-6.636-.191-3.629v-.018q.48.12.944.25a18.17 18.17 0 0 1 .555.16c.142.041.282.084.421.127l.118.038c.089.026.177.055.265.084h.009c.147.047.291.1.435.144s.286.1.427.148l.379.138.042.016c.146.054.288.108.43.163s.275.109.412.164.271.11.405.166.266.114.4.172q.4.173.776.354c.123.058.244.117.364.176l.03.016c.1.051.208.1.311.155l.08.041c.11.056.22.114.329.172l.359.193c.236.13.469.262.7.4l.34.2c.219.132.433.267.644.4a.134.134 0 0 0 .017.012c.107.071.215.14.321.212s.211.141.315.214.207.144.309.218l.3.219c.2.148.4.3.587.447.1.075.191.151.286.227s.188.152.281.229q.415.344.8.7t.73.69l.026.026q.244.242.477.485c.077.081.882.991.958 1.074a43.675 43.675 0 0 1-13.517 9.967" transform="translate(-458.236 -488.239)" style="fill:#2465e9"/>
        <path data-name="Path 6201" d="M285.438 533.251a13.779 13.779 0 0 1-6.91-1.783 9.628 9.628 0 0 1-4.245-4.675 1 1 0 1 1 1.857-.744c1.227 3.063 5.051 5.2 9.3 5.2 4.28 0 8.112-2.159 9.318-5.252a1 1 0 0 1 1.863.727 9.719 9.719 0 0 1-4.238 4.722 13.765 13.765 0 0 1-6.945 1.805z" transform="translate(-245.087 -468.749)" style="fill:#fff"/>
        <path data-name="Path 6202" d="M273.415 175.022a10.156 10.156 0 0 1 1.709-4.59s4.076-2.5 14.37 0c0 0 1.981 1.181 2.28 4.59a11.154 11.154 0 0 0-.629-8.019c-2-4.429-13.152-4.3-15.5-2s-5.6 7.181-2.23 10.019" transform="translate(-242.196 -145.54)" style="fill:#120284"/>
        <path data-name="Path 6203" d="M529.471 555.91a33.667 33.667 0 0 0-14.847-8.521c.2.062 7.175 2.36 13.371 10.042a19.9 19.9 0 0 0 1.476-1.521" transform="translate(-458.295 -487.474)" style="fill:#120284"/>
    </g>
</svg>
