<svg xmlns="http://www.w3.org/2000/svg" width="17.209" height="16.379" viewBox="0 0 17.209 16.379">
  <path id="logout" d="M3.832,16.378A3.786,3.786,0,0,1,0,12.811l0-.171v-8.9A3.776,3.776,0,0,1,3.651,0l.176,0H7.82a3.786,3.786,0,0,1,3.828,3.567l0,.922a.82.82,0,0,1-1.629.108L10.016,4.5V3.744A2.168,2.168,0,0,0,7.949,1.6l-.135,0H3.832A2.176,2.176,0,0,0,1.64,3.617l0,.132v8.886A2.168,2.168,0,0,0,3.7,14.776l.135,0h3.99a2.167,2.167,0,0,0,2.184-2.011l0-.879a.82.82,0,0,1,1.629-.108l.006.094v.767a3.77,3.77,0,0,1-3.639,3.73l-.18,0ZM14,11.317a.828.828,0,0,1-.579-.234.789.789,0,0,1-.077-1.041l.068-.078,1-.976H6.541A.8.8,0,0,1,6.43,7.4l.1-.007h7.883l-.993-.964a.789.789,0,0,1-.081-1.04l.068-.078a.843.843,0,0,1,1.076-.091l.081.067,2.4,2.33a.782.782,0,0,1,.251.576.8.8,0,0,1-.256.581l-2.38,2.314A.827.827,0,0,1,14,11.317Z" transform="translate(0 0)" fill="#465464"/>
</svg>
