<svg xmlns="http://www.w3.org/2000/svg" width="20.047" height="16.338" viewBox="0 0 20.047 16.338">
  <g id="user-id-svgrepo-com" transform="translate(-1.25 -3.25)">
    <path id="Ellipse_10" data-name="Ellipse 10" d="M1.5-.75A2.25,2.25,0,1,1-.75,1.5,2.253,2.253,0,0,1,1.5-.75Zm0,3A.75.75,0,1,0,.75,1.5.751.751,0,0,0,1.5,2.25Z" transform="translate(7 7)" fill="#465464"/>
    <path id="Path_6174" data-name="Path 6174" d="M8.709,12.25c2.542,0,4.459,1.12,4.459,2.6a2.093,2.093,0,0,1-.774,1.919c-.664.481-1.766.686-3.686.686s-3.022-.205-3.686-.686a2.093,2.093,0,0,1-.774-1.919C4.25,13.37,6.167,12.25,8.709,12.25Zm0,3.709c1.862,0,2.553-.218,2.806-.4.132-.1.153-.194.153-.7,0-.389-1.124-1.1-2.959-1.1s-2.959.715-2.959,1.1c0,.51.022.608.153.7C6.156,15.742,6.848,15.959,8.709,15.959Z" transform="translate(-0.218 -0.654)" fill="#465464"/>
    <path id="Path_6175" data-name="Path 6175" d="M13.128,19.588H9.419a33.987,33.987,0,0,1-4.17-.143,4.389,4.389,0,0,1-2.693-1.164,4.389,4.389,0,0,1-1.164-2.693,33.989,33.989,0,0,1-.142-4.17,33.99,33.99,0,0,1,.142-4.17A4.389,4.389,0,0,1,2.556,4.556,4.389,4.389,0,0,1,5.249,3.392a33.992,33.992,0,0,1,4.17-.142h3.709a33.992,33.992,0,0,1,4.17.142,4.389,4.389,0,0,1,2.693,1.164,3.976,3.976,0,0,1,1.055,2.066.75.75,0,1,1-1.466.319,2.521,2.521,0,0,0-.65-1.325c-.867-.867-2.516-.867-5.8-.867H9.419c-3.286,0-4.935,0-5.8.867s-.867,2.516-.867,5.8,0,4.935.867,5.8,2.516.867,5.8.867h3.709c3.286,0,4.935,0,5.8-.867s.867-2.516.867-5.8a.75.75,0,0,1,1.5,0,33.99,33.99,0,0,1-.142,4.17,4.389,4.389,0,0,1-1.164,2.693A4.389,4.389,0,0,1,17.3,19.445,33.987,33.987,0,0,1,13.128,19.588Z" fill="#465464"/>
    <path id="Path_6176" data-name="Path 6176" d="M18.709,12.75H15a.75.75,0,0,1,0-1.5h3.709a.75.75,0,0,1,0,1.5Z" transform="translate(-0.944 -0.581)" fill="#465464"/>
    <path id="Path_6177" data-name="Path 6177" d="M18.637,9.75H14a.75.75,0,0,1,0-1.5h4.637a.75.75,0,0,1,0,1.5Z" transform="translate(-0.872 -0.363)" fill="#465464"/>
    <path id="Path_6178" data-name="Path 6178" d="M18.782,15.75H16a.75.75,0,0,1,0-1.5h2.782a.75.75,0,0,1,0,1.5Z" transform="translate(-1.017 -0.799)" fill="#465464"/>
  </g>
</svg>
