<svg xmlns="http://www.w3.org/2000/svg" width="14" height="14" viewBox="0 0 14 14">
  <g id="Group_4893" data-name="Group 4893" transform="translate(-70 -279)">
    <path id="Op_component_1" data-name="Op component 1" d="M71.4,287.4v3.5h3.5v-3.5Zm-.7-1.4h4.9a.7.7,0,0,1,.7.7v4.9a.7.7,0,0,1-.7.7H70.7a.7.7,0,0,1-.7-.7v-4.9A.7.7,0,0,1,70.7,286Z" transform="translate(0 -6.999)" fill="#001426"/>
    <path id="Op_component_2" data-name="Op component 2" d="M82.4,287.4v3.5h3.5v-3.5Zm-.7-1.4h4.9a.7.7,0,0,1,.7.7v4.9a.7.7,0,0,1-.7.7H81.7a.7.7,0,0,1-.7-.7v-4.9A.7.7,0,0,1,81.7,286Z" transform="translate(-3.3 -6.999)" fill="#001426"/>
    <path id="Op_component_3" data-name="Op component 3" d="M82.4,298.4v3.5h3.5v-3.5Zm-.7-1.4h4.9a.7.7,0,0,1,.7.7v4.9a.7.7,0,0,1-.7.7H81.7a.7.7,0,0,1-.7-.7v-4.9A.7.7,0,0,1,81.7,297Z" transform="translate(-3.3 -10.299)" fill="#001426"/>
    <path id="Op_component_4" data-name="Op component 4" d="M71.4,298.4v3.5h3.5v-3.5Zm-.7-1.4h4.9a.7.7,0,0,1,.7.7v4.9a.7.7,0,0,1-.7.7H70.7a.7.7,0,0,1-.7-.7v-4.9A.7.7,0,0,1,70.7,297Z" transform="translate(0 -10.299)" fill="#001426"/>
  </g>
</svg>
