<svg xmlns="http://www.w3.org/2000/svg" width="17" height="17" viewBox="0 0 17 17">
  <path id="settings_" data-name="settings " d="M6.432,14.875a.493.493,0,0,0-.342-.485.458.458,0,0,0-.5.086l-.042.043a2.126,2.126,0,1,1-3.007-3.007l.038-.037a.47.47,0,0,0-.33-.794h-.12a2.125,2.125,0,1,1,0-4.25.494.494,0,0,0,.485-.342.458.458,0,0,0-.087-.5l-.042-.042A2.126,2.126,0,1,1,5.488,2.538l.037.036a.461.461,0,0,0,.508.092.725.725,0,0,1,.141-.045.458.458,0,0,0,.2-.376v-.12a2.125,2.125,0,0,1,4.25,0v.061a.471.471,0,0,0,.789.338l.042-.043a2.126,2.126,0,1,1,3.006,3.007l-.037.036a.461.461,0,0,0-.092.508.725.725,0,0,1,.045.141.457.457,0,0,0,.376.2h.12a2.125,2.125,0,0,1,0,4.25h-.061a.47.47,0,0,0-.338.789l.042.042a2.126,2.126,0,0,1-3.006,3.007l-.037-.038a.47.47,0,0,0-.794.33v.121a2.125,2.125,0,0,1-4.25,0Zm.188-1.8a1.884,1.884,0,0,1,1.229,1.734v.064a.708.708,0,0,0,1.417,0v-.123a1.886,1.886,0,0,1,3.207-1.334l.043.042a.71.71,0,0,0,1.211-.5.712.712,0,0,0-.208-.5l-.048-.047a1.877,1.877,0,0,1-.378-2.064v0a1.876,1.876,0,0,1,1.719-1.134h.064a.709.709,0,0,0,0-1.417h-.124a1.877,1.877,0,0,1-1.717-1.138.707.707,0,0,1-.052-.187,1.882,1.882,0,0,1,.435-1.939l.043-.043a.709.709,0,1,0-1-1l-.048.047a1.886,1.886,0,0,1-3.2-1.342V2.125a.708.708,0,0,0-1.417,0v.124A1.877,1.877,0,0,1,6.654,3.966a.746.746,0,0,1-.187.052,1.881,1.881,0,0,1-1.939-.435l-.043-.043a.709.709,0,1,0-1,1l.048.048a1.859,1.859,0,0,1,.392,2.029A1.882,1.882,0,0,1,2.189,7.849H2.125a.708.708,0,1,0,0,1.417h.123a1.886,1.886,0,0,1,1.334,3.207l-.043.043a.709.709,0,0,0,1,1l.048-.048a1.9,1.9,0,0,1,1.32-.54A1.749,1.749,0,0,1,6.62,13.077ZM5.667,8.5A2.833,2.833,0,1,1,8.5,11.333,2.834,2.834,0,0,1,5.667,8.5Zm1.417,0A1.417,1.417,0,1,0,8.5,7.083,1.417,1.417,0,0,0,7.084,8.5Zm6.01,1.839a.017.017,0,0,1,0,0h0Z" fill="#465464"/>
</svg>
