<svg xmlns="http://www.w3.org/2000/svg" width="79" height="61.826" viewBox="0 0 79 61.826">
    <g data-name="Group 4434">
        <path data-name="Path 6129" d="M86.283 30.87H42.489l-4.637-6.182A1.715 1.715 0 0 0 36.478 24H10.717A1.717 1.717 0 0 0 9 25.717v51.522a1.717 1.717 0 0 0 1.717 1.717H38.2V73.8h-5.157a5.152 5.152 0 0 1-3.643-8.791l15.457-15.456a5.277 5.277 0 0 1 7.285 0L67.6 65.009a5.152 5.152 0 0 1-3.643 8.791H58.8v5.152h27.483A1.716 1.716 0 0 0 88 77.239V32.587a1.716 1.716 0 0 0-1.717-1.717zm-53.24 1.717H17.587a1.717 1.717 0 1 1 0-3.435h15.456a1.717 1.717 0 0 1 0 3.435zM63.957 70.37H55.37v13.739a1.716 1.716 0 0 1-1.717 1.717h-10.3a1.718 1.718 0 0 1-1.717-1.717V70.37h-8.593a1.717 1.717 0 0 1-1.214-2.932l15.457-15.457a1.717 1.717 0 0 1 2.429 0l15.456 15.457a1.717 1.717 0 0 1-1.214 2.932z" transform="translate(-9 -24)" style="fill:#2465e9"/>
    </g>
</svg>
