<svg xmlns="http://www.w3.org/2000/svg" width="14.61" height="17.888" viewBox="0 0 14.61 17.888">
  <g id="user-svgrepo-com" transform="translate(-3.25 -1.25)">
    <path id="Ellipse_9" data-name="Ellipse 9" d="M3.5-.75A4.25,4.25,0,1,1-.75,3.5,4.255,4.255,0,0,1,3.5-.75Zm0,7A2.75,2.75,0,1,0,.75,3.5,2.753,2.753,0,0,0,3.5,6.25Z" transform="translate(7 2)" fill="#465464"/>
    <path id="Path_6173" data-name="Path 6173" d="M10.555,12.25c4.1,0,7.305,1.949,7.305,4.437a3.658,3.658,0,0,1-1.1,3.189c-1.06.863-2.975,1.248-6.209,1.248s-5.149-.385-6.209-1.248a3.658,3.658,0,0,1-1.1-3.189C3.25,14.2,6.459,12.25,10.555,12.25Zm0,7.375c2.749,0,4.519-.307,5.262-.912.519-.423.543-.985.543-2.026a2.521,2.521,0,0,0-1.538-1.954,8.87,8.87,0,0,0-4.268-.984,8.87,8.87,0,0,0-4.268.984A2.522,2.522,0,0,0,4.75,16.687c0,1.041.024,1.6.543,2.026C6.036,19.318,7.806,19.625,10.555,19.625Z" transform="translate(0 -1.987)" fill="#465464"/>
  </g>
</svg>
