<svg xmlns="http://www.w3.org/2000/svg" xmlns:xlink="http://www.w3.org/1999/xlink" width="303.771" height="66.864" viewBox="0 0 303.771 66.864">
  <defs>
    <style>
      .cls-1 {
        fill: #2465e9;
      }

      .cls-2 {
        clip-path: url(#clip-path);
      }

      .cls-3 {
        clip-path: url(#clip-path-2);
      }
    </style>
    <clipPath id="clip-path">
      <rect id="Rectangle_4107" data-name="Rectangle 4107" class="cls-1" width="59.475" height="59.347"/>
    </clipPath>
    <clipPath id="clip-path-2">
      <rect id="Rectangle_4109" data-name="Rectangle 4109" class="cls-1" width="223.771" height="30.949"/>
    </clipPath>
  </defs>
  <g id="Group_4423" data-name="Group 4423" transform="translate(-211 -267.653)">
    <g id="Group_4419" data-name="Group 4419" transform="translate(211 267.653)">
      <g id="Group_4419-2" data-name="Group 4419" class="cls-2">
        <path id="Path_6077" data-name="Path 6077" class="cls-1" d="M391.293,195.191a2.772,2.772,0,1,1-2.772-2.772,2.772,2.772,0,0,1,2.772,2.772" transform="translate(-331.818 -165.517)"/>
        <path id="Path_6078" data-name="Path 6078" class="cls-1" d="M343.328,195.191a2.772,2.772,0,1,1-2.772-2.772,2.772,2.772,0,0,1,2.772,2.772" transform="translate(-290.559 -165.517)"/>
        <path id="Path_6079" data-name="Path 6079" class="cls-1" d="M293.125,195.191a2.772,2.772,0,1,1-2.772-2.772,2.772,2.772,0,0,1,2.772,2.772" transform="translate(-247.375 -165.517)"/>
        <path id="Path_6080" data-name="Path 6080" class="cls-1" d="M245.16,195.191a2.772,2.772,0,1,1-2.772-2.772,2.772,2.772,0,0,1,2.772,2.772" transform="translate(-206.116 -165.517)"/>
        <path id="Path_6081" data-name="Path 6081" class="cls-1" d="M292.965,195.351a2.772,2.772,0,1,1-2.772-2.772,2.772,2.772,0,0,1,2.772,2.772" transform="translate(-247.237 -165.655)"/>
        <path id="Path_6082" data-name="Path 6082" class="cls-1" d="M245,195.351a2.772,2.772,0,1,1-2.772-2.772A2.772,2.772,0,0,1,245,195.351" transform="translate(-205.978 -165.655)"/>
        <path id="Path_6083" data-name="Path 6083" class="cls-1" d="M344.537,244.279A2.537,2.537,0,1,1,342,241.742a2.537,2.537,0,0,1,2.537,2.537" transform="translate(-292.003 -207.944)"/>
        <path id="Path_6084" data-name="Path 6084" class="cls-1" d="M295.363,242.836a2.772,2.772,0,1,1-2.772-2.772,2.772,2.772,0,0,1,2.772,2.772" transform="translate(-249.3 -206.501)"/>
        <path id="Path_6085" data-name="Path 6085" class="cls-1" d="M245,243a2.772,2.772,0,1,1-2.772-2.772A2.772,2.772,0,0,1,245,243" transform="translate(-205.978 -206.639)"/>
        <path id="Path_6086" data-name="Path 6086" class="cls-1" d="M197.035,243a2.772,2.772,0,1,1-2.772-2.772A2.772,2.772,0,0,1,197.035,243" transform="translate(-164.719 -206.639)"/>
        <path id="Path_6087" data-name="Path 6087" class="cls-1" d="M298.677,294.376a2.191,2.191,0,1,1-2.191-2.19,2.191,2.191,0,0,1,2.191,2.19" transform="translate(-253.151 -251.336)"/>
        <path id="Path_6088" data-name="Path 6088" class="cls-1" d="M248.928,292.244a2.537,2.537,0,1,1-2.537-2.537,2.537,2.537,0,0,1,2.537,2.537" transform="translate(-209.761 -249.203)"/>
        <path id="Path_6089" data-name="Path 6089" class="cls-1" d="M197.355,290.961a2.772,2.772,0,1,1-2.772-2.772,2.772,2.772,0,0,1,2.772,2.772" transform="translate(-164.994 -247.898)"/>
        <path id="Path_6090" data-name="Path 6090" class="cls-1" d="M201.468,343.62a2.191,2.191,0,1,1-2.191-2.191,2.191,2.191,0,0,1,2.191,2.191" transform="translate(-169.533 -293.695)"/>
        <path id="Path_6091" data-name="Path 6091" class="cls-1" d="M250.055,345.89a1.822,1.822,0,1,1-1.822-1.822,1.822,1.822,0,0,1,1.822,1.822" transform="translate(-211.961 -295.964)"/>
        <path id="Path_6092" data-name="Path 6092" class="cls-1" d="M151.719,341.488a2.537,2.537,0,1,1-2.537-2.537,2.537,2.537,0,0,1,2.537,2.537" transform="translate(-126.143 -291.563)"/>
        <path id="Path_6093" data-name="Path 6093" class="cls-1" d="M106.338,392.863a2.191,2.191,0,1,1-2.191-2.191,2.191,2.191,0,0,1,2.191,2.191" transform="translate(-87.703 -336.053)"/>
        <path id="Path_6094" data-name="Path 6094" class="cls-1" d="M154.925,395.133a1.822,1.822,0,1,1-1.822-1.822,1.822,1.822,0,0,1,1.822,1.822" transform="translate(-130.131 -338.323)"/>
        <path id="Path_6095" data-name="Path 6095" class="cls-1" d="M204.233,397.883a1.375,1.375,0,1,1-1.375-1.375,1.375,1.375,0,0,1,1.375,1.375" transform="translate(-173.315 -341.073)"/>
        <path id="Path_6096" data-name="Path 6096" class="cls-1" d="M56.589,390.731a2.537,2.537,0,1,1-2.537-2.537,2.537,2.537,0,0,1,2.537,2.537" transform="translate(-44.313 -333.921)"/>
        <path id="Path_6097" data-name="Path 6097" class="cls-1" d="M100.147,340.2a2.772,2.772,0,1,1-2.772-2.772,2.772,2.772,0,0,1,2.772,2.772" transform="translate(-81.377 -290.256)"/>
        <path id="Path_6098" data-name="Path 6098" class="cls-1" d="M149.39,290.961a2.772,2.772,0,1,1-2.772-2.772,2.772,2.772,0,0,1,2.772,2.772" transform="translate(-123.735 -247.898)"/>
        <path id="Path_6099" data-name="Path 6099" class="cls-1" d="M0,195.191a2.772,2.772,0,1,1,2.772,2.772A2.772,2.772,0,0,1,0,195.191" transform="translate(0 -165.517)"/>
        <path id="Path_6100" data-name="Path 6100" class="cls-1" d="M47.965,195.191a2.772,2.772,0,1,1,2.772,2.772,2.772,2.772,0,0,1-2.772-2.772" transform="translate(-41.259 -165.517)"/>
        <path id="Path_6101" data-name="Path 6101" class="cls-1" d="M98.168,195.191a2.772,2.772,0,1,1,2.772,2.772,2.772,2.772,0,0,1-2.772-2.772" transform="translate(-84.443 -165.517)"/>
        <path id="Path_6102" data-name="Path 6102" class="cls-1" d="M146.133,195.191a2.772,2.772,0,1,1,2.772,2.772,2.772,2.772,0,0,1-2.772-2.772" transform="translate(-125.702 -165.517)"/>
        <path id="Path_6103" data-name="Path 6103" class="cls-1" d="M98.328,195.031A2.772,2.772,0,1,1,101.1,197.8a2.772,2.772,0,0,1-2.772-2.772" transform="translate(-84.581 -165.38)"/>
        <path id="Path_6104" data-name="Path 6104" class="cls-1" d="M146.292,195.031a2.772,2.772,0,1,1,2.772,2.772,2.772,2.772,0,0,1-2.772-2.772" transform="translate(-125.839 -165.38)"/>
        <path id="Path_6105" data-name="Path 6105" class="cls-1" d="M49.644,148.989a2.537,2.537,0,1,1,2.537,2.537,2.537,2.537,0,0,1-2.537-2.537" transform="translate(-42.703 -125.977)"/>
        <path id="Path_6106" data-name="Path 6106" class="cls-1" d="M95.929,147.546a2.772,2.772,0,1,1,2.772,2.772,2.772,2.772,0,0,1-2.772-2.772" transform="translate(-82.517 -124.533)"/>
        <path id="Path_6107" data-name="Path 6107" class="cls-1" d="M146.292,147.386a2.772,2.772,0,1,1,2.772,2.772,2.772,2.772,0,0,1-2.772-2.772" transform="translate(-125.839 -124.396)"/>
        <path id="Path_6108" data-name="Path 6108" class="cls-1" d="M194.257,147.386a2.772,2.772,0,1,1,2.772,2.772,2.772,2.772,0,0,1-2.772-2.772" transform="translate(-167.098 -124.396)"/>
        <path id="Path_6109" data-name="Path 6109" class="cls-1" d="M99.767,103.157a2.191,2.191,0,1,1,2.191,2.191,2.191,2.191,0,0,1-2.191-2.191" transform="translate(-85.819 -86.85)"/>
        <path id="Path_6110" data-name="Path 6110" class="cls-1" d="M145.253,101.024a2.537,2.537,0,1,1,2.537,2.537,2.537,2.537,0,0,1-2.537-2.537" transform="translate(-124.945 -84.718)"/>
        <path id="Path_6111" data-name="Path 6111" class="cls-1" d="M193.938,99.421a2.772,2.772,0,1,1,2.772,2.772,2.772,2.772,0,0,1-2.772-2.772" transform="translate(-166.824 -83.137)"/>
        <path id="Path_6112" data-name="Path 6112" class="cls-1" d="M196.975,53.913a2.191,2.191,0,1,1,2.191,2.191,2.191,2.191,0,0,1-2.191-2.191" transform="translate(-169.436 -44.491)"/>
        <path id="Path_6113" data-name="Path 6113" class="cls-1" d="M152.928,56.182A1.822,1.822,0,1,1,154.75,58a1.822,1.822,0,0,1-1.822-1.822" transform="translate(-131.547 -46.76)"/>
        <path id="Path_6114" data-name="Path 6114" class="cls-1" d="M242.462,51.78A2.537,2.537,0,1,1,245,54.317a2.537,2.537,0,0,1-2.537-2.537" transform="translate(-208.564 -42.358)"/>
        <path id="Path_6115" data-name="Path 6115" class="cls-1" d="M292.105,4.67A2.191,2.191,0,1,1,294.3,6.86a2.191,2.191,0,0,1-2.191-2.191" transform="translate(-251.266 -2.132)"/>
        <path id="Path_6116" data-name="Path 6116" class="cls-1" d="M248.058,6.939A1.822,1.822,0,1,1,249.88,8.76a1.822,1.822,0,0,1-1.822-1.822" transform="translate(-213.377 -4.402)"/>
        <path id="Path_6117" data-name="Path 6117" class="cls-1" d="M204.25,9.689a1.375,1.375,0,1,1,1.375,1.375,1.375,1.375,0,0,1-1.375-1.375" transform="translate(-175.694 -7.152)"/>
        <path id="Path_6118" data-name="Path 6118" class="cls-1" d="M337.592,2.537a2.537,2.537,0,1,1,2.537,2.537,2.537,2.537,0,0,1-2.537-2.537" transform="translate(-290.394)"/>
        <path id="Path_6119" data-name="Path 6119" class="cls-1" d="M291.146,50.177a2.772,2.772,0,1,1,2.772,2.772,2.772,2.772,0,0,1-2.772-2.772" transform="translate(-250.441 -40.777)"/>
        <path id="Path_6120" data-name="Path 6120" class="cls-1" d="M241.9,99.421a2.772,2.772,0,1,1,2.772,2.772,2.772,2.772,0,0,1-2.772-2.772" transform="translate(-208.082 -83.137)"/>
      </g>
    </g>
    <g id="Group_4421" data-name="Group 4421" transform="translate(291 281.852)">
      <g id="Group_4420" data-name="Group 4420" class="cls-3">
        <path id="Path_6121" data-name="Path 6121" class="cls-1" d="M0,26.993l1.261-2.478A14.942,14.942,0,0,0,11.3,28.21c5.694,0,8.172-2.391,8.172-5.39C19.474,14.474.739,19.6.739,8.345.739,3.868,4.217,0,11.954,0a17.176,17.176,0,0,1,9.433,2.7L20.3,5.259a15.667,15.667,0,0,0-8.346-2.521c-5.564,0-8.042,2.478-8.042,5.521,0,8.346,18.735,3.3,18.735,14.388,0,4.477-3.565,8.3-11.345,8.3-4.564,0-9.042-1.608-11.3-3.956" transform="translate(0 0.001)"/>
        <path id="Path_6122" data-name="Path 6122" class="cls-1" d="M109.831,4.34,97.7,31.421H94.357L108.267.993h3.173l13.91,30.428h-3.39Z" transform="translate(-69.58 -0.732)"/>
        <path id="Path_6123" data-name="Path 6123" class="cls-1" d="M255.41,11.425c0,6.477-4.694,10.389-12.432,10.389h-8.172v9.607h-3.217V.993h11.389c7.738,0,12.432,3.912,12.432,10.432m-3.217,0c0-4.869-3.217-7.651-9.3-7.651h-8.085V18.989h8.085c6.086,0,9.3-2.782,9.3-7.563" transform="translate(-170.778 -0.732)"/>
        <path id="Path_6124" data-name="Path 6124" class="cls-1" d="M372.612,11.425c0,6.477-4.694,10.389-12.432,10.389h-8.172v9.607h-3.217V.993H360.18c7.738,0,12.432,3.912,12.432,10.432m-3.217,0c0-4.869-3.217-7.651-9.3-7.651h-8.085V18.989h8.085c6.086,0,9.3-2.782,9.3-7.563" transform="translate(-257.205 -0.732)"/>
        <path id="Path_6125" data-name="Path 6125" class="cls-1" d="M491.422.993V31.421h-3.173V17.381H469.21v14.04h-3.217V.993h3.217V14.555h19.039V.993Z" transform="translate(-343.632 -0.732)"/>
        <rect id="Rectangle_4108" data-name="Rectangle 4108" class="cls-1" width="3.217" height="30.428" transform="translate(157.7 0.261)"/>
        <path id="Path_6126" data-name="Path 6126" class="cls-1" d="M671.344,31.421l-6.955-9.78a21.669,21.669,0,0,1-2.434.131h-8.172v9.65h-3.217V.993h11.389c7.737,0,12.432,3.912,12.432,10.432a9.432,9.432,0,0,1-6.955,9.563l7.433,10.432Zm-.174-20c0-4.869-3.217-7.651-9.3-7.651h-8.085V19.032h8.085c6.086,0,9.3-2.826,9.3-7.607" transform="translate(-479.739 -0.732)"/>
        <path id="Path_6127" data-name="Path 6127" class="cls-1" d="M791.767,28.639v2.782H770.25V.993h20.865V3.775H773.467V14.6H789.2v2.738H773.467v11.3Z" transform="translate(-567.996 -0.732)"/>
      </g>
    </g>
    <g id="Group_4422" data-name="Group 4422" transform="translate(350.297 305.961)">
      <g id="Style_Color_1_" data-name="Style=Color (1)" transform="translate(74.704 15.308)">
        <path id="Path_171" data-name="Path 171" class="cls-1" d="M260.114,36H257.72v2.394h2.394Z" transform="translate(-221.384 -36)"/>
        <path id="Path_172" data-name="Path 172" class="cls-1" d="M260.114,46.981H257.72v9.61h2.394Z" transform="translate(-221.384 -43.345)"/>
        <path id="Path_173" data-name="Path 173" class="cls-1" d="M223.075,47.768a2.868,2.868,0,0,0-2.195-.791h-.546a2.284,2.284,0,0,0-2.2,1.206,2.523,2.523,0,0,0-2.355-1.206h-.528a2.629,2.629,0,0,0-1.234.281,1.7,1.7,0,0,0-.764.735h-.076V46.975H210.78v9.609h2.394V50.476q0-1.426,1.3-1.426h.585a.937.937,0,0,1,1.111,1.111v6.425h2.394V50.5q0-1.45,1.3-1.451h.472a1.147,1.147,0,0,1,.848.254,1.219,1.219,0,0,1,.245.857v6.425h2.392V50.049A3.209,3.209,0,0,0,223.075,47.768Z" transform="translate(-189.988 -43.34)"/>
        <path id="Path_174" data-name="Path 174" class="cls-1" d="M186.9,46.981h-4.353a3.154,3.154,0,0,0-2.3.791,3.037,3.037,0,0,0-.81,2.281v3.467a3.048,3.048,0,0,0,.81,2.281,3.151,3.151,0,0,0,2.3.791H183a2.519,2.519,0,0,0,1.111-.254,1.435,1.435,0,0,0,.735-.764h.075v1.018h2.394v-9.61Zm-3.278,7.536h-.7a1.147,1.147,0,0,1-.848-.254,1.219,1.219,0,0,1-.245-.857v-3.24a1.214,1.214,0,0,1,.245-.857,1.147,1.147,0,0,1,.848-.254h1.771c.15,0,.225.069.227.207v3.832q0,1.423-1.3,1.424Z" transform="translate(-169.025 -43.345)"/>
        <path id="Path_175" data-name="Path 175" class="cls-1" d="M153.033,41.946h0l4.3-5.946h-2.783l-3.534,5.155a6.214,6.214,0,0,0-.583,1.168h-.038V36H148V49.247h2.394V45.055l1.186-1.394,3.485,5.585H157.7Z" transform="translate(-148 -36)"/>
        <path id="Path_176" data-name="Path 176" class="cls-1" d="M289.624,36.309l.084-.292h-1.482l-.155.581-3.055,11.1h-.075l-3.11-11.31-.1-.391h-1.488l.3,1.031L284,48.982s0,0,0,0l.075.26h1.805l.077-.261s0,0,0,0l.126-.437,0-.009,3.322-11.476.006-.016.212-.731A.005.005,0,0,1,289.624,36.309Z" transform="translate(-236.446 -36)"/>
        <path id="Path_177" data-name="Path 177" class="cls-1" d="M372.55,56.589h-1.621a2.787,2.787,0,0,1-2.045-.735,2.747,2.747,0,0,1-.744-2.054V49.767a2.562,2.562,0,0,1,2.788-2.788h1.621a2.787,2.787,0,0,1,2.045.735,2.747,2.747,0,0,1,.744,2.054V53.8a2.758,2.758,0,0,1-.744,2.054A2.786,2.786,0,0,1,372.55,56.589Zm-1.471-1.206H372.4a1.416,1.416,0,0,0,1.582-1.621V49.806a1.416,1.416,0,0,0-1.582-1.621h-1.319a1.415,1.415,0,0,0-1.583,1.621v3.956a1.417,1.417,0,0,0,1.583,1.621Z" transform="translate(-295.238 -43.343)"/>
        <path id="Path_178" data-name="Path 178" class="cls-1" d="M333.99,52.568a1.967,1.967,0,0,0-.85-.7,7.313,7.313,0,0,0-1.164-.389c-.426-.1-.85-.19-1.27-.254s-.806-.137-1.157-.217c-.782-.188-1.082-.537-1.082-1.045v-.6c0-.947.428-1.175,1.467-1.175h1.489c1.04,0,1.537.208,1.537,1.115V49.8h1.284v-.6a2,2,0,0,0-.7-1.621,2.846,2.846,0,0,0-1.891-.59h-1.944a2.836,2.836,0,0,0-1.9.59,2.02,2.02,0,0,0-.693,1.621v.733a2.044,2.044,0,0,0,.612,1.548,3.29,3.29,0,0,0,1.49.694c.584.119,1.168.225,1.752.314,1.389.219,1.986.552,1.986,1.27v.25c0,.916-.422,1.374-1.462,1.374h-1.54c-1.04,0-1.484-.448-1.484-1.345V53.7h-1.354v.687a2.007,2.007,0,0,0,.7,1.621,2.851,2.851,0,0,0,1.891.59h2.014a2.844,2.844,0,0,0,1.891-.59,2.008,2.008,0,0,0,.7-1.621v-.673A1.954,1.954,0,0,0,333.99,52.568Z" transform="translate(-267.797 -43.349)"/>
        <path id="Path_179" data-name="Path 179" class="cls-1" d="M398.821,56.528h-1.38V46.887h1.38v1h.075a1.911,1.911,0,0,1,1.928-1h1.058a2.669,2.669,0,0,1,2,.738,2.826,2.826,0,0,1,.718,2.059v6.844h-1.38V49.741a1.429,1.429,0,0,0-1.588-1.645h-1.058a1.769,1.769,0,0,0-1.3.453,1.737,1.737,0,0,0-.453,1.286Z" transform="translate(-314.834 -43.282)"/>
        <path id="Path_180" data-name="Path 180" class="cls-1" d="M316.776,39.074H315.4V40.45h1.376Z" transform="translate(-259.963 -38.056)"/>
        <path id="Path_181" data-name="Path 181" class="cls-1" d="M316.776,46.981H315.4v9.61h1.376Z" transform="translate(-259.963 -43.345)"/>
        <path id="Path_182" data-name="Path 182" class="cls-1" d="M357.8,39.074h-1.376V40.45H357.8Z" transform="translate(-287.399 -38.056)"/>
        <path id="Path_183" data-name="Path 183" class="cls-1" d="M357.8,46.981h-1.376v9.61H357.8Z" transform="translate(-287.399 -43.345)"/>
      </g>
    </g>
  </g>
</svg>
