<svg xmlns="http://www.w3.org/2000/svg" width="24.09" height="22.95" viewBox="0 0 24.09 22.95">
  <g id="Group_4853" data-name="Group 4853" transform="translate(-64 -45.896)">
    <path id="Path_4589" data-name="Path 4589" d="M27.73,21.256l4.851,1.573s2.56-.127,4.608-3.885c0,0-4.677-3.146-9.459,2.317Z" transform="translate(50.902 37.377)" fill="#ea0029"/>
    <path id="Path_4590" data-name="Path 4590" d="M27.73,24.13,32.581,25.7s2,1.6,1.457,5.854c0,0-5.632-.19-6.3-7.421Z" transform="translate(50.902 34.503)" fill="#ea0029"/>
    <g id="Group_266" data-name="Group 266" transform="translate(65.378 45.954)">
      <path id="Path_4591" data-name="Path 4591" d="M8.632,10.242s-2.143-1.4-6.012.438c0,0,1.932,5.294,9.015,3.684l-3-4.122Z" transform="translate(-2.62 -4.652)" fill="#ffa400"/>
      <path id="Path_4592" data-name="Path 4592" d="M13.95,5.7S13.274,3.23,16.209.11c0,0,4.444,3.463.744,9.712Z" transform="translate(-7.938 -0.11)" fill="#ffa400"/>
    </g>
    <g id="Group_267" data-name="Group 267" transform="translate(64 55.497)">
      <path id="Path_4593" data-name="Path 4593" d="M12.216,24.27,7.371,25.848s-2,1.6-1.446,5.854C5.925,31.7,11.557,31.5,12.216,24.27Z" transform="translate(-2.758 -21.061)" fill="#e81f76"/>
      <path id="Path_4594" data-name="Path 4594" d="M9.469,21.4,4.623,22.977S2.063,22.856.01,19.1c0,0,4.671-3.156,9.464,2.3Z" transform="translate(-0.01 -18.19)" fill="#e81f76"/>
    </g>
    <path id="Path_4595" data-name="Path 4595" d="M22.89,27.77v5.1s.913,2.4,5.125,3.183C28.015,36.052,29.567,30.631,22.89,27.77Z" transform="translate(53.187 32.784)" fill="#9d1d96"/>
    <path id="Path_4596" data-name="Path 4596" d="M18.178,27.77v5.1s-.9,2.4-5.109,3.193C13.069,36.062,11.512,30.647,18.178,27.77Z" transform="translate(57.899 32.784)" fill="#9d1d96"/>
    <path id="Path_4597" data-name="Path 4597" d="M24.419,9.712l2.993-4.128s.67-2.47-2.275-5.585c0,0-4.439,3.473-.723,9.712Z" transform="translate(53.168 45.896)" fill="#ff6b00"/>
    <path id="Path_4598" data-name="Path 4598" d="M25.745,14.248l2.993-4.128s2.143-1.4,6.012.428c0,0-1.921,5.3-9.01,3.7Z" transform="translate(51.841 41.361)" fill="#ff6b00"/>
  </g>
</svg>
