<svg xmlns="http://www.w3.org/2000/svg" width="25" height="17" viewBox="0 0 25 17">
  <g id="Group_4462" data-name="Group 4462" transform="translate(-242 -467)">
    <rect id="Rectangle_4119" data-name="Rectangle 4119" width="25" height="17" rx="4" transform="translate(242 467)" fill="#c7d8fa"/>
    <path id="Polygon_1" data-name="Polygon 1" d="M4.167,1.2a1,1,0,0,1,1.648,0L8.9,5.693a1,1,0,0,1-.824,1.567H1.9a1,1,0,0,1-.824-1.567Z" transform="translate(255.907 480.491) rotate(-90)" fill="#fff"/>
    <path id="Polygon_2" data-name="Polygon 2" d="M4.167,1.2a1,1,0,0,1,1.648,0L8.9,5.693a1,1,0,0,1-.824,1.567H1.9a1,1,0,0,1-.824-1.567Z" transform="translate(253.093 470.509) rotate(90)" fill="#fff"/>
  </g>
</svg>
